<?xml version="1.0" encoding="UTF-8" standalone="no"?>
<!DOCTYPE svg PUBLIC "-//W3C//DTD SVG 1.1//EN" "http://www.w3.org/Graphics/SVG/1.1/DTD/svg11.dtd">
<svg width="100%" height="100%" viewBox="0 0 95 46" version="1.1" xmlns="http://www.w3.org/2000/svg" xmlns:xlink="http://www.w3.org/1999/xlink" xml:space="preserve" xmlns:serif="http://www.serif.com/" style="fill-rule:evenodd;clip-rule:evenodd;stroke-linejoin:round;stroke-miterlimit:2;">
    <g transform="matrix(1,0,0,1,-23903.7,-486.254)">
        <g transform="matrix(1,0,0,1,-0.651693,-0.0116297)">
            <g transform="matrix(1.49888,0,0,1.46339,-31836.9,-2366.26)">
                <path d="M37196.3,1963.26L37192.7,1957.19L37192.7,1963.26L37188.8,1963.26L37188.8,1949.26L37192.7,1949.26L37192.7,1955.15L37196.2,1949.26L37200.6,1949.26L37196.4,1955.96L37200.9,1963.26L37196.3,1963.26Z" style="fill:white;fill-rule:nonzero;"/>
                <path d="M37205.9,1952.76L37205.9,1954.48L37209.7,1954.48L37209.7,1957.78L37205.9,1957.78L37205.9,1959.76L37210.2,1959.76L37210.2,1963.26L37202,1963.26L37202,1949.26L37210.2,1949.26L37210.2,1952.76L37205.9,1952.76Z" style="fill:white;fill-rule:nonzero;"/>
                <path d="M37224.1,1949.26L37220,1963.26L37215,1963.26L37210.8,1949.26L37214.9,1949.26L37217.5,1958.89L37220,1949.26L37224.1,1949.26Z" style="fill:white;fill-rule:nonzero;"/>
                <rect x="37225" y="1949.26" width="3.871" height="14.007" style="fill:white;fill-rule:nonzero;"/>
                <path d="M37242.5,1963.26L37238.6,1963.26L37234.5,1956.22L37234.5,1963.26L37230.6,1963.26L37230.6,1949.26L37234.5,1949.26L37238.6,1956.42L37238.6,1949.26L37242.5,1949.26L37242.5,1963.26Z" style="fill:white;fill-rule:nonzero;"/>
                <path d="M37196.4,1971.04C37196.3,1970.76 37196,1970.55 37195.8,1970.4C37195.5,1970.25 37195.1,1970.17 37194.7,1970.17C37194,1970.17 37193.4,1970.44 37193,1971C37192.6,1971.54 37192.4,1972.28 37192.4,1973.23C37192.4,1974.33 37192.6,1975.15 37193.1,1975.69C37193.5,1976.23 37194.2,1976.5 37195.2,1976.5C37196.1,1976.5 37196.8,1976.09 37197.3,1975.27L37194.3,1975.27L37194.3,1972.16L37200.6,1972.16L37200.6,1976.56C37200,1977.6 37199.3,1978.5 37198.3,1979.25C37197.4,1979.99 37196.2,1980.36 37194.8,1980.36C37193.5,1980.36 37192.4,1980.06 37191.4,1979.47C37190.5,1978.86 37189.7,1978.01 37189.2,1976.93C37188.7,1975.85 37188.5,1974.62 37188.5,1973.23C37188.5,1971.85 37188.7,1970.62 37189.2,1969.53C37189.7,1968.45 37190.5,1967.61 37191.4,1967.02C37192.4,1966.41 37193.5,1966.11 37194.7,1966.11C37196.3,1966.11 37197.7,1966.55 37198.7,1967.44C37199.7,1968.32 37200.3,1969.52 37200.5,1971.04L37196.4,1971.04Z" style="fill:white;fill-rule:nonzero;"/>
                <path d="M37208,1980.39C37206.8,1980.39 37205.7,1980.09 37204.8,1979.47C37203.8,1978.85 37203,1977.99 37202.5,1976.89C37201.9,1975.8 37201.6,1974.57 37201.6,1973.19C37201.6,1971.82 37201.9,1970.59 37202.5,1969.49C37203,1968.4 37203.8,1967.55 37204.8,1966.94C37205.7,1966.32 37206.8,1966.01 37208,1966.01C37209.1,1966.01 37210.2,1966.32 37211.2,1966.94C37212.1,1967.55 37212.9,1968.4 37213.4,1969.49C37214,1970.59 37214.3,1971.82 37214.3,1973.19C37214.3,1974.57 37214,1975.8 37213.4,1976.89C37212.9,1977.99 37212.1,1978.85 37211.1,1979.47C37210.2,1980.09 37209.1,1980.39 37208,1980.39ZM37208,1976.3C37208.7,1976.3 37209.3,1976.02 37209.7,1975.47C37210.2,1974.9 37210.4,1974.14 37210.4,1973.19C37210.4,1972.23 37210.2,1971.47 37209.7,1970.92C37209.3,1970.35 37208.7,1970.07 37208,1970.07C37207.2,1970.07 37206.6,1970.35 37206.2,1970.92C37205.7,1971.47 37205.5,1972.23 37205.5,1973.19C37205.5,1974.14 37205.7,1974.9 37206.2,1975.47C37206.6,1976.02 37207.2,1976.3 37208,1976.3Z" style="fill:white;fill-rule:nonzero;"/>
                <path d="M37230.5,1966.25L37230.5,1980.26L37226.7,1980.26L37226.7,1973.27L37224.8,1980.26L37221.5,1980.26L37219.6,1973.27L37219.6,1980.26L37215.7,1980.26L37215.7,1966.25L37220.4,1966.25L37223.2,1974.66L37225.8,1966.25L37230.5,1966.25Z" style="fill:white;fill-rule:nonzero;"/>
                <path d="M37236.1,1969.75L37236.1,1971.47L37240,1971.47L37240,1974.78L37236.1,1974.78L37236.1,1976.76L37240.5,1976.76L37240.5,1980.26L37232.3,1980.26L37232.3,1966.25L37240.5,1966.25L37240.5,1969.75L37236.1,1969.75Z" style="fill:white;fill-rule:nonzero;"/>
                <path d="M37246.8,1980.39C37245.3,1980.39 37244.1,1980.01 37243.1,1979.23C37242.2,1978.44 37241.7,1977.28 37241.6,1975.77L37245.7,1975.77C37245.8,1976.57 37246.1,1976.97 37246.6,1976.97C37246.8,1976.97 37247,1976.92 37247.2,1976.81C37247.3,1976.69 37247.4,1976.52 37247.4,1976.28C37247.4,1975.95 37247.2,1975.69 37246.9,1975.49C37246.6,1975.28 37246.1,1975.04 37245.5,1974.78C37244.7,1974.46 37244,1974.15 37243.5,1973.85C37243,1973.54 37242.5,1973.1 37242.2,1972.52C37241.8,1971.94 37241.6,1971.19 37241.6,1970.29C37241.6,1969.38 37241.8,1968.6 37242.2,1967.97C37242.6,1967.32 37243.2,1966.84 37243.9,1966.51C37244.6,1966.18 37245.4,1966.01 37246.3,1966.01C37247.9,1966.01 37249.1,1966.41 37249.9,1967.2C37250.8,1967.99 37251.3,1969.11 37251.3,1970.54L37247.2,1970.54C37247.2,1970.15 37247.1,1969.86 37246.9,1969.69C37246.8,1969.52 37246.6,1969.43 37246.3,1969.43C37246.2,1969.43 37246,1969.5 37245.9,1969.63C37245.8,1969.75 37245.8,1969.92 37245.8,1970.15C37245.8,1970.46 37245.9,1970.73 37246.2,1970.94C37246.5,1971.14 37247,1971.38 37247.7,1971.67C37248.5,1972 37249.1,1972.32 37249.6,1972.62C37250.1,1972.92 37250.6,1973.35 37250.9,1973.89C37251.3,1974.43 37251.5,1975.11 37251.5,1975.92C37251.5,1976.78 37251.3,1977.55 37250.9,1978.24C37250.6,1978.91 37250,1979.44 37249.3,1979.82C37248.6,1980.2 37247.8,1980.39 37246.8,1980.39Z" style="fill:white;fill-rule:nonzero;"/>
            </g>
        </g>
    </g>
</svg>
