<?xml version="1.0" encoding="UTF-8" standalone="no"?>
<!DOCTYPE svg PUBLIC "-//W3C//DTD SVG 1.1//EN" "http://www.w3.org/Graphics/SVG/1.1/DTD/svg11.dtd">
<svg width="100%" height="100%" viewBox="0 0 111 79" version="1.1" xmlns="http://www.w3.org/2000/svg" xmlns:xlink="http://www.w3.org/1999/xlink" xml:space="preserve" xmlns:serif="http://www.serif.com/" style="fill-rule:evenodd;clip-rule:evenodd;stroke-linejoin:round;stroke-miterlimit:2;">
    <g transform="matrix(1,0,0,1,-21382.1,-7427.78)">
        <g transform="matrix(1.91786,0,0,5.66567,11435.3,228.09)">
            <g transform="matrix(0.522062,0,0,0.16845,2106.49,1208.56)">
                <path d="M5899.52,393.548L5906.06,369.252L5912.1,369.252L5918.64,393.548L5914.48,393.548L5908.65,372.12L5909.42,372.12L5903.68,393.548L5899.52,393.548ZM5903.44,388.486L5903.44,384.201L5914.75,384.201L5914.75,388.486L5903.44,388.486Z" style="fill:white;fill-rule:nonzero;"/>
                <path d="M5921.32,393.548L5921.32,369.252L5925.42,369.252L5934.73,385.449L5934.73,369.252L5938.84,369.252L5938.84,393.548L5934.73,393.548L5925.42,377.351L5925.42,393.548L5921.32,393.548Z" style="fill:white;fill-rule:nonzero;"/>
                <path d="M5943,393.548L5943,369.252L5949.93,369.252C5950.1,369.252 5950.44,369.258 5950.97,369.269C5951.5,369.28 5952,369.32 5952.49,369.387C5954.21,369.623 5955.68,370.304 5956.87,371.429C5958.07,372.553 5958.99,373.982 5959.61,375.714C5960.23,377.446 5960.55,379.342 5960.55,381.4C5960.55,383.458 5960.23,385.354 5959.61,387.086C5958.99,388.818 5958.07,390.247 5956.87,391.371C5955.68,392.496 5954.21,393.177 5952.49,393.413C5952,393.48 5951.5,393.52 5950.97,393.531C5950.44,393.542 5950.1,393.548 5949.93,393.548L5943,393.548ZM5947.1,389.229L5949.93,389.229C5950.2,389.229 5950.56,389.223 5951.02,389.212C5951.47,389.189 5951.88,389.139 5952.25,389.06C5953.18,388.846 5953.94,388.351 5954.53,387.575C5955.12,386.799 5955.56,385.865 5955.83,384.774C5956.12,383.683 5956.26,382.558 5956.26,381.4C5956.26,380.185 5956.12,379.032 5955.82,377.941C5955.53,376.85 5955.09,375.928 5954.49,375.174C5953.9,374.421 5953.15,373.942 5952.25,373.74C5951.88,373.65 5951.47,373.599 5951.02,373.588C5950.56,373.577 5950.2,373.571 5949.93,373.571L5947.1,373.571L5947.1,389.229Z" style="fill:white;fill-rule:nonzero;"/>
                <path d="M5901.01,422.531L5901.01,398.235L5904.64,398.235L5911.71,414.365L5918.79,398.235L5922.42,398.235L5922.42,422.531L5918.64,422.531L5918.64,408.021L5912.43,422.531L5911,422.531L5904.78,408.021L5904.78,422.531L5901.01,422.531Z" style="fill:white;fill-rule:nonzero;"/>
                <path d="M5935.3,423.037C5933.57,423.037 5932.06,422.643 5930.75,421.856C5929.44,421.057 5928.42,419.938 5927.68,418.498C5926.95,417.059 5926.58,415.366 5926.58,413.42L5926.58,398.269L5930.69,398.235L5930.69,413.386C5930.69,414.185 5930.81,414.91 5931.04,415.563C5931.28,416.215 5931.61,416.778 5932.03,417.25C5932.45,417.722 5932.94,418.088 5933.5,418.347C5934.06,418.594 5934.66,418.718 5935.3,418.718C5935.95,418.718 5936.56,418.588 5937.11,418.33C5937.68,418.071 5938.17,417.705 5938.58,417.233C5939,416.761 5939.32,416.198 5939.55,415.546C5939.79,414.893 5939.91,414.174 5939.91,413.386L5939.91,398.235L5944.01,398.235L5944.01,413.42C5944.01,415.366 5943.64,417.059 5942.91,418.498C5942.18,419.938 5941.16,421.057 5939.85,421.856C5938.54,422.643 5937.02,423.037 5935.3,423.037Z" style="fill:white;fill-rule:nonzero;"/>
                <path d="M5957.36,423.037C5955.22,423.037 5953.38,422.508 5951.82,421.451C5950.27,420.394 5949.08,418.915 5948.23,417.014C5947.4,415.113 5946.98,412.903 5946.98,410.383C5946.98,407.863 5947.4,405.653 5948.23,403.752C5949.08,401.851 5950.27,400.372 5951.82,399.315C5953.38,398.258 5955.22,397.729 5957.36,397.729C5959.82,397.729 5961.89,398.421 5963.55,399.804C5965.23,401.188 5966.41,403.061 5967.09,405.423L5963.02,406.705C5962.62,405.231 5961.95,404.09 5961.01,403.28C5960.07,402.459 5958.85,402.048 5957.36,402.048C5956.01,402.048 5954.87,402.391 5953.96,403.077C5953.06,403.764 5952.38,404.731 5951.92,405.979C5951.47,407.228 5951.24,408.696 5951.24,410.383C5951.24,412.07 5951.47,413.538 5951.92,414.787C5952.38,416.035 5953.06,417.002 5953.96,417.689C5954.87,418.375 5956.01,418.718 5957.36,418.718C5958.85,418.718 5960.07,418.307 5961.01,417.486C5961.95,416.665 5962.62,415.523 5963.02,414.061L5967.09,415.343C5966.41,417.705 5965.23,419.578 5963.55,420.962C5961.89,422.345 5959.82,423.037 5957.36,423.037Z" style="fill:white;fill-rule:nonzero;"/>
                <path d="M5970.36,422.531L5970.36,398.235L5974.41,398.235L5974.41,408.223L5983.98,408.223L5983.98,398.235L5988.03,398.235L5988.03,422.531L5983.98,422.531L5983.98,412.509L5974.41,412.509L5974.41,422.531L5970.36,422.531Z" style="fill:white;fill-rule:nonzero;"/>
                <path d="M5901.01,451.514L5901.01,427.218L5904.64,427.218L5911.71,443.348L5918.79,427.218L5922.42,427.218L5922.42,451.514L5918.64,451.514L5918.64,437.004L5912.43,451.514L5911,451.514L5904.78,437.004L5904.78,451.514L5901.01,451.514Z" style="fill:white;fill-rule:nonzero;"/>
                <path d="M5935.77,452.02C5933.63,452.02 5931.78,451.492 5930.23,450.434C5928.68,449.377 5927.48,447.898 5926.64,445.997C5925.81,444.096 5925.39,441.886 5925.39,439.366C5925.39,436.847 5925.81,434.636 5926.64,432.735C5927.48,430.834 5928.68,429.355 5930.23,428.298C5931.78,427.241 5933.63,426.712 5935.77,426.712C5937.91,426.712 5939.76,427.241 5941.31,428.298C5942.86,429.355 5944.06,430.834 5944.89,432.735C5945.73,434.636 5946.15,436.847 5946.15,439.366C5946.15,441.886 5945.73,444.096 5944.89,445.997C5944.06,447.898 5942.86,449.377 5941.31,450.434C5939.76,451.492 5937.91,452.02 5935.77,452.02ZM5935.77,447.701C5937.13,447.723 5938.26,447.392 5939.16,446.705C5940.07,446.019 5940.74,445.046 5941.19,443.787C5941.64,442.527 5941.87,441.053 5941.87,439.366C5941.87,437.679 5941.64,436.217 5941.19,434.979C5940.74,433.742 5940.07,432.78 5939.16,432.094C5938.26,431.408 5937.13,431.054 5935.77,431.031C5934.41,431.009 5933.28,431.341 5932.38,432.027C5931.48,432.713 5930.8,433.686 5930.35,434.946C5929.9,436.205 5929.68,437.679 5929.68,439.366C5929.68,441.053 5929.9,442.516 5930.35,443.753C5930.8,444.99 5931.48,445.952 5932.38,446.638C5933.28,447.324 5934.41,447.678 5935.77,447.701Z" style="fill:white;fill-rule:nonzero;"/>
                <path d="M5949.13,451.514L5949.13,427.218L5958.17,427.218C5958.38,427.218 5958.65,427.229 5959,427.252C5959.36,427.263 5959.68,427.297 5959.95,427.353C5961.23,427.578 5962.28,428.056 5963.09,428.787C5963.91,429.518 5964.52,430.441 5964.9,431.554C5965.29,432.657 5965.48,433.888 5965.48,435.249C5965.48,437.285 5965.04,439.029 5964.15,440.48C5963.25,441.919 5961.86,442.808 5959.95,443.145L5958.17,443.28L5953.17,443.28L5953.17,451.514L5949.13,451.514ZM5961.2,451.514L5956.98,441.627L5961.14,440.716L5965.78,451.514L5961.2,451.514ZM5953.17,438.995L5957.99,438.995C5958.2,438.995 5958.43,438.984 5958.67,438.961C5958.92,438.939 5959.15,438.894 5959.36,438.826C5959.9,438.658 5960.32,438.376 5960.62,437.983C5960.92,437.578 5961.12,437.133 5961.23,436.65C5961.35,436.155 5961.41,435.688 5961.41,435.249C5961.41,434.811 5961.35,434.35 5961.23,433.866C5961.12,433.371 5960.92,432.927 5960.62,432.533C5960.32,432.128 5959.9,431.841 5959.36,431.672C5959.15,431.605 5958.92,431.56 5958.67,431.537C5958.43,431.515 5958.2,431.504 5957.99,431.504L5953.17,431.504L5953.17,438.995Z" style="fill:white;fill-rule:nonzero;"/>
                <path d="M5969.05,451.514L5969.05,427.218L5983.03,427.218L5983.03,431.504L5973.1,431.504L5973.1,436.7L5981.25,436.7L5981.25,440.986L5973.1,440.986L5973.1,447.229L5983.03,447.229L5983.03,451.514L5969.05,451.514Z" style="fill:white;fill-rule:nonzero;"/>
                <rect x="5987.25" y="446.925" width="4.045" height="4.589" style="fill:white;fill-rule:nonzero;"/>
                <rect x="5996.77" y="446.925" width="4.045" height="4.589" style="fill:white;fill-rule:nonzero;"/>
                <rect x="6006.29" y="446.925" width="4.045" height="4.589" style="fill:white;fill-rule:nonzero;"/>
            </g>
        </g>
    </g>
</svg>
