<?xml version="1.0" encoding="UTF-8" standalone="no"?>
<!DOCTYPE svg PUBLIC "-//W3C//DTD SVG 1.1//EN" "http://www.w3.org/Graphics/SVG/1.1/DTD/svg11.dtd">
<svg width="100%" height="100%" viewBox="0 0 300 92" version="1.1" xmlns="http://www.w3.org/2000/svg" xmlns:xlink="http://www.w3.org/1999/xlink" xml:space="preserve" xmlns:serif="http://www.serif.com/" style="fill-rule:evenodd;clip-rule:evenodd;stroke-linejoin:round;stroke-miterlimit:2;">
    <g transform="matrix(1,0,0,1,-64513.9,-15626.3)">
        <g transform="matrix(1,0,0,1.47199,-4131.13,-583.283)">
            <g transform="matrix(2.54138,0,0,4.17997,56776.4,3452.4)">
                <g transform="matrix(1.25752,0,0,0.480697,-79401.8,-2826.22)">
                    <path d="M66858.5,9641.72L66858.5,9661.18C66858.4,9662.69 66859.4,9662.88 66861,9662.78L66861,9665.51C66857.6,9665.59 66855.7,9664.16 66855.7,9661.18L66855.6,9641.72L66858.5,9641.72Z" style="fill:white;"/>
                </g>
                <g transform="matrix(1.0484,0,0,0.368685,-65416.5,-1745.57)">
                    <path d="M66869.8,9665.55C66869.8,9666.24 66869.7,9666.89 66869.4,9667.5C66869.2,9668.1 66868.9,9668.63 66868.5,9669.09C66868.1,9669.55 66867.6,9669.91 66867,9670.16C66866.5,9670.43 66865.9,9670.57 66865.3,9670.57L66864.7,9670.57C66864.1,9670.57 66863.5,9670.43 66863,9670.16C66862.4,9669.91 66861.9,9669.56 66861.5,9669.12C66861.1,9668.67 66860.8,9668.13 66860.5,9667.53C66860.3,9666.92 66860.2,9666.27 66860.2,9665.58C66860.2,9664.89 66860.3,9664.25 66860.5,9663.64C66860.8,9663.01 66861.1,9662.48 66861.5,9662.04C66861.9,9661.58 66862.4,9661.22 66863,9660.95C66863.5,9660.67 66864.1,9660.54 66864.7,9660.54L66867,9660.54L66867,9658.34C66867,9657.91 66866.8,9657.54 66866.6,9657.25C66866.3,9656.93 66865.9,9656.78 66865.6,9656.78C66864.8,9656.77 66864.4,9656.68 66863.8,9657.21C66863.3,9657.67 66863,9658.46 66863,9658.7L66863,9659.33L66860.1,9659.33L66860.1,9658.7C66860.1,9658.05 66860.3,9657.45 66860.5,9656.88C66860.7,9656.3 66861,9655.8 66861.4,9655.38C66861.8,9654.96 66863.4,9653.66 66865.6,9653.64C66866.1,9653.64 66866.7,9653.77 66867.2,9654.02C66867.7,9654.27 66868.2,9654.6 66868.6,9655.02C66868.9,9655.44 66869.2,9655.94 66869.5,9656.53C66869.7,9657.09 66869.8,9657.7 66869.8,9658.34L66869.8,9665.55ZM66863,9665.55C66863,9666.08 66863.2,9666.52 66863.5,9666.9C66863.8,9667.26 66864.2,9667.43 66864.7,9667.43L66865.3,9667.43C66865.8,9667.43 66866.1,9667.26 66866.5,9666.9C66866.8,9666.52 66867,9666.08 66867,9665.55L66867,9663.67L66864.7,9663.67C66864.2,9663.67 66863.8,9663.86 66863.5,9664.24C66863.2,9664.59 66863,9665.03 66863,9665.55Z" style="fill:white;fill-rule:nonzero;"/>
                </g>
                <g transform="matrix(1.23132,0,0,0.470685,-77649,-2730.25)">
                    <path d="M66872.6,9666.9L66872.6,9658.34C66872.6,9657.7 66872.7,9657.09 66873,9656.53C66873.2,9655.94 66873.5,9655.44 66873.9,9655.02C66874.3,9654.6 66874.7,9654.27 66875.2,9654.02C66875.7,9653.77 66876.3,9653.64 66876.9,9653.64C66877.4,9653.64 66877.9,9653.75 66878.4,9653.96C66878.9,9654.17 66879.3,9654.46 66879.7,9654.84C66880.1,9654.46 66880.5,9654.17 66881,9653.96C66881.5,9653.75 66882,9653.64 66882.5,9653.64C66883.1,9653.64 66883.7,9653.77 66884.2,9654.02C66884.7,9654.27 66885.2,9654.6 66885.5,9655.02C66885.9,9655.44 66886.2,9655.94 66886.4,9656.53C66886.7,9657.09 66886.8,9657.7 66886.8,9658.34L66886.8,9666.9L66883.9,9666.9L66883.9,9658.34C66883.9,9657.91 66883.8,9657.54 66883.5,9657.25C66883.3,9656.93 66882.9,9656.78 66882.5,9656.78C66882.2,9656.78 66881.8,9656.93 66881.5,9657.25C66881.3,9657.54 66881.1,9657.91 66881.1,9658.34L66881.1,9666.9L66878.3,9666.9L66878.3,9658.34C66878.3,9657.91 66878.2,9657.54 66877.9,9657.25C66877.6,9656.93 66877.3,9656.78 66876.9,9656.78C66876.5,9656.78 66876.2,9656.93 66875.9,9657.25C66875.6,9657.54 66875.5,9657.91 66875.5,9658.34L66875.5,9666.9L66872.6,9666.9Z" style="fill:white;"/>
                </g>
                <g transform="matrix(1.25752,0,0,0.366999,-79401.7,-1729.3)">
                    <path d="M66893.9,9670.57C66893.4,9670.57 66892.9,9670.47 66892.5,9670.28L66892.5,9679.4L66889.6,9679.4L66889.6,9658.34C66889.6,9657.7 66889.7,9657.09 66890,9656.53C66890.2,9655.94 66890.5,9655.44 66890.9,9655.02C66891.3,9654.6 66891.7,9654.27 66892.2,9654.02C66892.7,9653.77 66893.3,9653.64 66893.9,9653.64C66894.5,9653.64 66895,9653.77 66895.5,9654.02C66896,9654.27 66896.5,9654.6 66896.9,9655.02C66897.3,9655.44 66897.6,9655.94 66897.8,9656.53C66898,9657.09 66898.1,9657.7 66898.1,9658.34L66898.1,9665.87C66898.1,9666.51 66898,9667.13 66897.8,9667.72C66897.6,9668.28 66897.3,9668.77 66896.9,9669.19C66896.5,9669.6 66896,9669.94 66895.5,9670.19C66895,9670.44 66894.5,9670.57 66893.9,9670.57ZM66892.5,9665.87C66892.5,9666.3 66892.6,9666.68 66892.9,9666.99C66893.2,9667.29 66893.5,9667.43 66893.9,9667.43C66894.3,9667.43 66894.6,9667.29 66894.9,9666.99C66895.2,9666.68 66895.3,9666.3 66895.3,9665.87L66895.3,9658.34C66895.3,9657.91 66895.2,9657.54 66894.9,9657.25C66894.6,9656.93 66894.3,9656.78 66893.9,9656.78C66893.5,9656.78 66893.2,9656.93 66892.9,9657.25C66892.6,9657.54 66892.5,9657.91 66892.5,9658.34L66892.5,9665.87Z" style="fill:white;fill-rule:nonzero;"/>
                </g>
                <g transform="matrix(1.25752,0,0,0.368687,-79402.4,-1745.6)">
                    <path d="M66909.5,9665.87C66909.5,9666.51 66909.4,9667.13 66909.1,9667.72C66908.9,9668.28 66908.6,9668.77 66908.2,9669.19C66907.8,9669.6 66907.4,9669.94 66906.9,9670.19C66906.4,9670.44 66905.8,9670.57 66905.2,9670.57C66904.6,9670.57 66904.1,9670.44 66903.6,9670.19C66903,9669.94 66902.6,9669.6 66902.2,9669.19C66901.8,9668.77 66901.5,9668.28 66901.3,9667.72C66901.1,9667.13 66901,9666.51 66901,9665.87L66901,9658.34C66901,9657.7 66901.1,9657.09 66901.3,9656.53C66901.5,9655.94 66901.8,9655.44 66902.2,9655.02C66902.6,9654.6 66903,9654.27 66903.6,9654.02C66904.1,9653.77 66904.6,9653.64 66905.2,9653.64C66905.8,9653.64 66906.4,9653.77 66906.9,9654.02C66907.4,9654.27 66907.8,9654.62 66908.2,9655.05C66908.6,9655.47 66908.9,9655.97 66909.1,9656.56C66909.4,9657.12 66909.5,9657.73 66909.5,9658.38L66909.5,9658.97C66909.5,9659.62 66909.4,9660.24 66909.1,9660.82C66908.9,9661.38 66908.6,9661.88 66908.2,9662.29C66907.8,9662.71 66907.4,9663.05 66906.9,9663.3C66906.4,9663.55 66905.8,9663.67 66905.2,9663.67L66903.8,9663.67L66903.8,9665.87C66903.8,9666.3 66904,9666.68 66904.2,9666.99C66904.5,9667.29 66904.8,9667.43 66905.2,9667.43C66905.6,9667.43 66905.9,9667.29 66906.2,9666.99C66906.5,9666.68 66906.6,9666.3 66906.6,9665.87L66906.6,9665.24L66909.5,9665.24L66909.5,9665.87ZM66903.8,9660.54L66905.2,9660.54C66905.6,9660.54 66905.9,9660.39 66906.2,9660.1C66906.5,9659.79 66906.6,9659.41 66906.6,9658.97L66906.6,9658.34C66906.6,9657.91 66906.5,9657.54 66906.2,9657.25C66905.9,9656.93 66905.6,9656.78 66905.2,9656.78C66904.8,9656.78 66904.5,9656.93 66904.2,9657.25C66904,9657.54 66903.8,9657.91 66903.8,9658.34L66903.8,9660.54Z" style="fill:white;fill-rule:nonzero;"/>
                </g>
                <g transform="matrix(1.25752,0,0,0.480697,-79403.1,-2826.9)">
                    <path d="M66912.4,9666.62L66912.4,9658.34C66912.4,9657.7 66912.5,9657.09 66912.7,9656.53C66912.9,9655.94 66913.2,9655.44 66913.6,9655.02C66914,9654.6 66914.4,9654.27 66914.9,9654.02C66915.5,9653.77 66916,9653.64 66916.6,9653.64L66917.8,9653.64L66917.8,9656.78L66916.6,9656.78L66916.6,9656.78C66916.2,9656.78 66915.9,9656.93 66915.6,9657.25C66915.3,9657.54 66915.2,9657.91 66915.2,9658.34L66915.2,9666.62L66912.4,9666.62Z" style="fill:white;"/>
                </g>
                <g transform="matrix(1.25752,0,0,0.480697,-79407.8,-2828.8)">
                    <path d="M66929.4,9670.57L66927.9,9670.57C66927.4,9670.57 66926.8,9670.44 66926.3,9670.19C66925.8,9669.94 66925.3,9669.6 66924.9,9669.19C66924.6,9668.77 66924.3,9668.28 66924,9667.72C66923.8,9667.13 66923.7,9666.51 66923.7,9665.87L66923.7,9655.28L66926.5,9655.28L66926.5,9657.59L66929.4,9657.59L66929.4,9660.72L66926.5,9660.72L66926.5,9665.87C66926.5,9666.3 66926.7,9666.68 66926.9,9666.99C66927.2,9667.29 66927.5,9667.43 66927.9,9667.43C66928.1,9667.43 66928.7,9667.43 66929.4,9667.43L66929.4,9670.57Z" style="fill:white;"/>
                </g>
                <g transform="matrix(1.25752,0,0,0.425915,-79412.7,-2298.32)">
                    <path d="M66943.5,9657.69L66939.2,9665.58L66958,9665.58L66958,9668.92L66935.9,9668.92C66935.2,9668.92 66934.6,9668.25 66934.6,9667.43C66934.6,9667.09 66935.6,9665.5 66935.6,9665.5L66940,9657.81L66935,9657.79L66935,9654.27L66943.2,9654.27C66943.9,9654.27 66944.5,9654.94 66944.5,9655.76C66944.5,9656.1 66943.5,9657.69 66943.5,9657.69Z" style="fill:white;"/>
                </g>
                <g transform="matrix(0.382802,0,0,0.12726,-20714.7,594.191)">
                    <g transform="matrix(0.902733,0,0,1,6462.39,0)">
                        <text x="66439.6px" y="9654.66px" style="font-family:'SKBarbicane-Regular', 'SK Barbicane';font-size:16.959px;fill:rgb(76,76,76);">s<tspan x="66448px 66456px 66464px 66472.1px " y="9654.66px 9654.66px 9654.66px 9654.66px ">tone</tspan></text>
                    </g>
                    <g transform="matrix(0.902733,0,0,1,6465.94,0)">
                        <g transform="matrix(16.9591,0,0,16.9591,66541.5,9654.66)">
                        </g>
                        <text x="66481.6px" y="9654.66px" style="font-family:'SKBarbicane-Regular', 'SK Barbicane';font-size:16.959px;fill:white;"><tspan x="66481.6px 66489.6px 66497.6px 66506px 66510.6px 66518.7px 66526.7px 66534.7px " y="9654.66px 9654.66px 9654.66px 9654.66px 9654.66px 9654.66px 9654.66px 9654.66px ">designer</tspan></text>
                    </g>
                </g>
            </g>
        </g>
    </g>
</svg>
