<?xml version="1.0" encoding="UTF-8" standalone="no"?>
<!DOCTYPE svg PUBLIC "-//W3C//DTD SVG 1.1//EN" "http://www.w3.org/Graphics/SVG/1.1/DTD/svg11.dtd">
<svg width="100%" height="100%" viewBox="0 0 174 156" version="1.1" xmlns="http://www.w3.org/2000/svg" xmlns:xlink="http://www.w3.org/1999/xlink" xml:space="preserve" xmlns:serif="http://www.serif.com/" style="fill-rule:evenodd;clip-rule:evenodd;stroke-linecap:round;stroke-linejoin:round;stroke-miterlimit:1.5;">
    <g transform="matrix(1,0,0,1,-21461.1,-3366.63)">
        <g transform="matrix(1.91786,0,0,5.66567,11588.5,419.542)">
            <g transform="matrix(0.421372,0,0,0.142637,-14231.5,186.273)">
                <path d="M46125.8,2439.55L46126.5,2452.46L46102.9,2452.46L46101.8,2462.36L46125.1,2461.58L46125.5,2473.94L46103,2473.71L46101.4,2484.07L46125.7,2484.62L46126.4,2496.2L46089.7,2495.53L46090.4,2440.55L46125.8,2439.55" style="fill:none;stroke:white;stroke-width:3.71px;"/>
            </g>
            <g transform="matrix(0.421372,0,0,0.142637,-14231.5,186.273)">
                <path d="M46135,2440.55L46134.4,2452.01L46130.2,2452.01L46130,2461.47L46133.3,2462.47C46132.8,2500.67 46137,2496.31 46154.8,2495.09C46158.3,2494.84 46157.8,2488.44 46155.8,2484.51C46149.6,2485.45 46147.6,2482.76 46148,2478.06L46148.3,2461.7L46154.3,2461.7L46153.3,2451.68L46147.8,2451.46L46148,2439.55L46135,2440.55" style="fill:none;stroke:white;stroke-width:3.71px;"/>
            </g>
            <g transform="matrix(0.421372,0,0,0.142637,-14219,186.318)">
                <path d="M46155.8,2484.51C46149.6,2485.45 46147.6,2482.76 46148,2478.06L46148.3,2461.7L46154.3,2461.7L46153.3,2451.68L46147.8,2451.46L46148,2439.55L46135,2440.55L46134.4,2452.01L46130.2,2452.01L46130,2461.47L46133.3,2462.47C46132.9,2495.11 46135.5,2495.47 46147.1,2497.03" style="fill:none;stroke:white;stroke-width:3.71px;"/>
            </g>
            <g transform="matrix(0.421372,0,0,0.142637,-14231.5,186.273)">
                <path d="M46185.3,2484.83L46200.6,2484.81C46227.2,2397.51 46070.2,2342.45 46059.6,2468.03C46055.1,2522.14 46140.3,2560.34 46194.4,2500.47C46194.4,2500.47 46194.3,2496.35 46192.8,2496.2C46189.7,2495.87 46180.6,2497.59 46176.4,2497.35C46173.5,2497.19 46170,2495.88 46167.4,2494.63" style="fill:none;stroke:white;stroke-width:3.71px;"/>
            </g>
            <g transform="matrix(0.421372,0,0,0.142637,-14231.5,186.273)">
                <path d="M46055.7,2399.83L46091.3,2399.83L46091.9,2388.14L46069.4,2387.86L46070.7,2344.6C46128.7,2337.44 46142.9,2433.12 46074.5,2432.8C46000.1,2424.77 46023.1,2356.55 46055.4,2345.99L46055.7,2399.83" style="fill:none;stroke:white;stroke-width:3.71px;stroke-linecap:butt;stroke-linejoin:miter;"/>
            </g>
            <g transform="matrix(0.421372,0,0,0.142637,-14231.5,186.273)">
                <path d="M46027.4,2447.62L46016,2447.21L46015.9,2435.8L46053,2436.08L46053.4,2446.65L46042.4,2447.9L46042.4,2486.86C46100.2,2488.04 46091.2,2406.48 46037.1,2402.69C45979.2,2403.03 45980,2483.64 46026.4,2486.58L46027.4,2447.62" style="fill:none;stroke:white;stroke-width:3.71px;"/>
            </g>
        </g>
    </g>
</svg>
