<?xml version="1.0" encoding="UTF-8" standalone="no"?>
<!DOCTYPE svg PUBLIC "-//W3C//DTD SVG 1.1//EN" "http://www.w3.org/Graphics/SVG/1.1/DTD/svg11.dtd">
<svg width="100%" height="100%" viewBox="0 0 312 99" version="1.1" xmlns="http://www.w3.org/2000/svg" xmlns:xlink="http://www.w3.org/1999/xlink" xml:space="preserve" xmlns:serif="http://www.serif.com/" style="fill-rule:evenodd;clip-rule:evenodd;stroke-linejoin:round;stroke-miterlimit:2;">
    <g transform="matrix(1,0,0,1,-64513.9,-14381.5)">
        <g transform="matrix(1,0,0,1.47199,-4131.13,-583.283)">
            <g transform="matrix(2.21385,0,0,3.71793,58547.9,3256.8)">
                <g transform="matrix(0.521414,0,0,0.199316,-29911.4,-71.2882)">
                    <path d="M66122.7,9772.47L66112.9,9772.46L66113.3,9684.99C66113.3,9684.99 66113.3,9683.42 66114,9682.64C66114.7,9681.74 66116.5,9681.79 66116.5,9681.79L66145.8,9685.52L66146.1,9772.48L66132.9,9772.48C66133.1,9767.73 66131.8,9752.35 66132.4,9748.85C66132.8,9746.81 66136.7,9749.16 66138.1,9748.46C66139.4,9747.77 66140.8,9746.36 66140.7,9744.71C66140.6,9743.07 66137.8,9740.84 66137.5,9738.99C66137.3,9737.14 66139.3,9735.23 66139.2,9733.59C66139,9731.96 66136.7,9730.94 66136.4,9729.18C66136.1,9727.31 66137.6,9724.15 66137.3,9722.36C66136.9,9720.67 66134.7,9719.93 66134.2,9718.44C66133.7,9716.95 66134.9,9714.61 66134.5,9713.43C66134.2,9712.31 66132.5,9712.37 66132,9711.35C66131.5,9710.53 66132.5,9708.56 66131.8,9707.05C66131.5,9706.58 66129.1,9703.73 66128.7,9702.74C66126.1,9695.32 66122.7,9695.61 66123.4,9704.32C66123.6,9705.91 66122.3,9707.92 66122.8,9709.61C66123.4,9711.77 66124.1,9714.59 66122.6,9716.91C66121.9,9718.09 66123.4,9719.99 66123.3,9721.67C66123.1,9723.18 66121.1,9724.45 66120.8,9725.85C66120.5,9727.27 66121.4,9729.28 66121,9730.7C66120.5,9732.3 66118.5,9733.31 66118.2,9734.9C66117.9,9736.34 66119.1,9738.25 66118.9,9739.8C66118.7,9741.43 66117.1,9742.69 66117.2,9743.9C66117.3,9745.73 66117.9,9748.13 66119.1,9748.96C66120.4,9749.8 66124.7,9746.76 66124.8,9748.88C66125.1,9753.02 66123.2,9764.34 66122.7,9772.47Z" style="fill:white;"/>
                </g>
                <g transform="matrix(0.362821,0,0,0.138692,-19452.8,538.257)">
                    <g transform="matrix(1.03801,0,0,1,-2519.4,0)">
                        <g transform="matrix(39.0504,0,0,39.0504,66564.3,9603.83)">
                        </g>
                        <text x="66285.8px" y="9603.83px" style="font-family:'TimesNewRomanPSMT', 'Times New Roman';font-size:39.05px;fill:white;">P<tspan x="66306.3px 66333.3px 66360.3px 66385.2px 66418.7px 66445.7px 66470.5px 66482.3px 66504.9px 66513.5px 66540.5px " y="9603.83px 9603.83px 9603.83px 9603.83px 9603.83px 9603.83px 9603.83px 9603.83px 9603.83px 9603.83px 9603.83px ">HARMACIE DE</tspan></text>
                    </g>
                </g>
                <g transform="matrix(0.521666,0,0,0.199316,-29982.1,-37.7952)">
                    <g transform="matrix(1.03801,0,0,1,-2519.4,0)">
                        <g transform="matrix(39.0504,0,0,39.0504,66479.7,9603.83)">
                        </g>
                        <text x="66285.8px" y="9603.83px" style="font-family:'TimesNewRomanPSMT', 'Times New Roman';font-size:39.05px;fill:white;">H<tspan x="66313.2px 66340.6px 66361.5px 66373.7px 66401.1px 66428.4px 66451.5px " y="9603.83px 9603.83px 9603.83px 9603.83px 9603.83px 9603.83px 9603.83px ">OSINGEN</tspan></text>
                    </g>
                </g>
                <g transform="matrix(0.521414,0,0,0.199316,-29911.4,-71.2882)">
                    <path d="M66169.2,9772.02C66164.5,9772.17 66163.9,9772.95 66158.3,9772.08C66157,9771.88 66159.2,9752.15 66158.4,9748.08C66157.9,9746.06 66153.7,9748.38 66152.2,9747.7C66150.6,9747.02 66149.2,9745.62 66149.3,9744C66149.4,9742.38 66152.5,9740.19 66152.8,9738.37C66153.1,9736.54 66150.8,9734.66 66151,9733.05C66151.1,9731.44 66153.6,9730.44 66154,9728.71C66154.3,9726.86 66152.6,9723.76 66153,9722C66153.4,9720.33 66155.9,9719.6 66156.4,9718.13C66156.9,9716.67 66155.6,9714.36 66156.1,9713.2C66156.4,9712.1 66158.3,9712.15 66158.9,9711.16C66159.4,9710.34 66158.3,9708.41 66159.1,9706.91C66159.4,9706.45 66161.9,9703.59 66162.4,9702.68C66165.8,9696.71 66169.5,9696.85 66168.3,9704.23C66168,9705.78 66169.5,9707.77 66169,9709.44C66168.3,9711.56 66167.6,9714.34 66169.2,9716.63C66170,9717.78 66168.3,9719.66 66168.5,9721.31C66168.7,9722.8 66170.8,9724.06 66171.2,9725.43C66171.6,9726.83 66170.5,9728.81 66171,9730.21C66171.6,9731.78 66173.7,9732.78 66174,9734.34C66174.3,9735.75 66173.1,9737.64 66173.3,9739.17C66173.5,9740.77 66175.2,9742.01 66175.2,9743.2C66175,9745 66174.4,9747.37 66173,9748.19C66171.6,9749.01 66166.9,9746.02 66166.7,9748.11C66166.5,9752.41 66168.8,9763.97 66169.2,9772.02Z" style="fill:white;"/>
                </g>
            </g>
        </g>
    </g>
</svg>
